<mxfile host="65bd71144e">
    <diagram id="FMLW4vH4mlUDBBPDJ4si" name="Page-1">
        <mxGraphModel dx="1331" dy="465" grid="1" gridSize="10" guides="1" tooltips="1" connect="1" arrows="1" fold="1" page="1" pageScale="1" pageWidth="850" pageHeight="1100" math="0" shadow="0">
            <root>
                <mxCell id="0"/>
                <mxCell id="1" parent="0"/>
                <mxCell id="9" style="edgeStyle=none;html=1;exitX=0.5;exitY=1;exitDx=0;exitDy=0;entryX=0.5;entryY=0;entryDx=0;entryDy=0;" parent="1" source="2" target="4" edge="1">
                    <mxGeometry relative="1" as="geometry"/>
                </mxCell>
                <mxCell id="2" value="App&lt;br&gt;Navbar" style="whiteSpace=wrap;html=1;" parent="1" vertex="1">
                    <mxGeometry x="330" y="50" width="120" height="60" as="geometry"/>
                </mxCell>
                <mxCell id="3" value="Sign up Form" style="whiteSpace=wrap;html=1;" parent="1" vertex="1">
                    <mxGeometry x="130" y="160" width="120" height="60" as="geometry"/>
                </mxCell>
                <mxCell id="10" style="edgeStyle=none;html=1;exitX=1;exitY=0.5;exitDx=0;exitDy=0;entryX=0;entryY=0.5;entryDx=0;entryDy=0;" parent="1" source="2" target="6" edge="1">
                    <mxGeometry relative="1" as="geometry">
                        <mxPoint x="500" y="90" as="targetPoint"/>
                    </mxGeometry>
                </mxCell>
                <mxCell id="11" style="edgeStyle=none;html=1;exitX=0;exitY=0.5;exitDx=0;exitDy=0;entryX=1;entryY=0.5;entryDx=0;entryDy=0;" parent="1" source="4" target="3" edge="1">
                    <mxGeometry relative="1" as="geometry"/>
                </mxCell>
                <mxCell id="12" style="edgeStyle=none;html=1;exitX=0.5;exitY=1;exitDx=0;exitDy=0;entryX=0.5;entryY=0;entryDx=0;entryDy=0;" parent="1" source="4" target="7" edge="1">
                    <mxGeometry relative="1" as="geometry"/>
                </mxCell>
                <mxCell id="4" value="Landing Page&lt;br&gt;Fetch Requests" style="whiteSpace=wrap;html=1;" parent="1" vertex="1">
                    <mxGeometry x="330" y="160" width="120" height="60" as="geometry"/>
                </mxCell>
                <mxCell id="6" value="Sign In" style="whiteSpace=wrap;html=1;" parent="1" vertex="1">
                    <mxGeometry x="520" y="50" width="120" height="60" as="geometry"/>
                </mxCell>
                <mxCell id="31" style="edgeStyle=none;html=1;exitX=0;exitY=0.5;exitDx=0;exitDy=0;entryX=0.5;entryY=0;entryDx=0;entryDy=0;" parent="1" source="7" target="27" edge="1">
                    <mxGeometry relative="1" as="geometry"/>
                </mxCell>
                <mxCell id="32" style="edgeStyle=none;html=1;exitX=1;exitY=0.5;exitDx=0;exitDy=0;entryX=0.5;entryY=0;entryDx=0;entryDy=0;" parent="1" source="7" target="13" edge="1">
                    <mxGeometry relative="1" as="geometry"/>
                </mxCell>
                <mxCell id="7" value="Jobs Container/Home" style="whiteSpace=wrap;html=1;" parent="1" vertex="1">
                    <mxGeometry x="330" y="260" width="120" height="60" as="geometry"/>
                </mxCell>
                <mxCell id="13" value="Job Listings" style="whiteSpace=wrap;html=1;" parent="1" vertex="1">
                    <mxGeometry x="445" y="350" width="120" height="60" as="geometry"/>
                </mxCell>
                <mxCell id="14" value="Featured Listing" style="whiteSpace=wrap;html=1;" parent="1" vertex="1">
                    <mxGeometry x="465" y="480" width="120" height="60" as="geometry"/>
                </mxCell>
                <mxCell id="15" value="Job Listings" style="whiteSpace=wrap;html=1;" parent="1" vertex="1">
                    <mxGeometry x="455" y="360" width="120" height="60" as="geometry"/>
                </mxCell>
                <mxCell id="20" style="edgeStyle=none;html=1;exitX=0.5;exitY=1;exitDx=0;exitDy=0;" parent="1" source="16" target="14" edge="1">
                    <mxGeometry relative="1" as="geometry"/>
                </mxCell>
                <mxCell id="16" value="Job Listings" style="whiteSpace=wrap;html=1;" parent="1" vertex="1">
                    <mxGeometry x="465" y="370" width="120" height="60" as="geometry"/>
                </mxCell>
                <mxCell id="26" value="Job Listings" style="whiteSpace=wrap;html=1;" parent="1" vertex="1">
                    <mxGeometry x="220" y="460" width="120" height="60" as="geometry"/>
                </mxCell>
                <mxCell id="33" style="edgeStyle=none;html=1;exitX=0.5;exitY=1;exitDx=0;exitDy=0;entryX=0.5;entryY=0;entryDx=0;entryDy=0;" parent="1" source="27" target="26" edge="1">
                    <mxGeometry relative="1" as="geometry"/>
                </mxCell>
                <mxCell id="36" style="edgeStyle=none;html=1;exitX=0;exitY=0.5;exitDx=0;exitDy=0;entryX=1;entryY=0.5;entryDx=0;entryDy=0;" parent="1" source="27" target="34" edge="1">
                    <mxGeometry relative="1" as="geometry"/>
                </mxCell>
                <mxCell id="27" value="Profile" style="whiteSpace=wrap;html=1;" parent="1" vertex="1">
                    <mxGeometry x="220" y="350" width="120" height="60" as="geometry"/>
                </mxCell>
                <mxCell id="28" value="Job Listings" style="whiteSpace=wrap;html=1;" parent="1" vertex="1">
                    <mxGeometry x="230" y="470" width="120" height="60" as="geometry"/>
                </mxCell>
                <mxCell id="30" value="Saved Listings" style="whiteSpace=wrap;html=1;" parent="1" vertex="1">
                    <mxGeometry x="240" y="480" width="120" height="60" as="geometry"/>
                </mxCell>
                <mxCell id="34" value="Resume" style="whiteSpace=wrap;html=1;" parent="1" vertex="1">
                    <mxGeometry x="50" y="350" width="120" height="60" as="geometry"/>
                </mxCell>
                <mxCell id="39" value="State" style="text;html=1;resizable=0;autosize=1;align=center;verticalAlign=middle;points=[];fillColor=none;strokeColor=none;rounded=0;" parent="1" vertex="1">
                    <mxGeometry x="405" y="220" width="40" height="20" as="geometry"/>
                </mxCell>
            </root>
        </mxGraphModel>
    </diagram>
</mxfile>
